# xmcd
#
# Track frame offsets:
# 150
# 22411
# 45218
# 67655
# 92073
# 112668
# 135441
# 157908
# 180281
# 202862
# 226116
# 250884
# 271930
#
# Disc length: 3890 seconds
#
#
# Revision: 0
# Processed by: cddbd v1.5.2PL0 Copyright (c) Steve Scherf et al.
# Submitted via: FreeRIP 2.96 
#
DISCID=8f0f300d
DTITLE=Joanne K. Rowling - Harry Potter und der Halbblutprinz CD20
DYEAR=2006
DGENRE=Hörbuch
TTITLE0=234 - Die Hoehle 1
TTITLE1=235 - Die Hoehle 2
TTITLE2=236 - Die Hoehle 3
TTITLE3=237 - Die Hoehle 4
TTITLE4=238 - Die Hoehle 5
TTITLE5=239 - Die Hoehle 6
TTITLE6=240 - Die Hoehle 7
TTITLE7=241 - Die Hoehle 8
TTITLE8=242 - Die Hoehle 9
TTITLE9=243 - Die Hoehle 10
TTITLE10=244 - Die Hoehle 11
TTITLE11=245 - Der vom Blitz getroffene Turm 1
TTITLE12=246 - Der vom Blitz getroffene Turm 2
EXTD=gelesen von Rufus Beck
EXTT0=
EXTT1=
EXTT2=
EXTT3=
EXTT4=
EXTT5=
EXTT6=
EXTT7=
EXTT8=
EXTT9=
EXTT10=
EXTT11=
EXTT12=
PLAYORDER=
